<svg width="82" height="80" viewBox="0 0 82 80" fill="none" xmlns="http://www.w3.org/2000/svg">
<path fill-rule="evenodd" clip-rule="evenodd" d="M41 21.1435C35.9227 21.1435 31.1212 20.3379 27.4803 18.8751C23.2992 17.1952 20.9965 14.7461 20.9967 11.9786C20.9967 9.21129 23.2994 6.76214 27.4805 5.0823C30.0854 4.03579 33.2861 3.32783 36.7554 3.00836C36.1978 2.27496 36.2492 1.21966 36.9132 0.547804C37.6348 -0.182601 38.8048 -0.182601 39.5266 0.547804L42.3065 3.36187C43.0282 4.09228 43.0282 5.27664 42.3065 6.00704L39.5264 8.82093C39.1657 9.18622 38.6926 9.36878 38.2197 9.36878C37.7468 9.36878 37.2739 9.18622 36.913 8.82093C36.3704 8.27158 36.2361 7.46561 36.5096 6.78907C33.6232 7.09583 30.9885 7.69754 28.8439 8.55925C25.7796 9.79037 24.6924 11.1708 24.6924 11.9786C24.6924 12.7864 25.7796 14.1668 28.8439 15.3979C32.0613 16.6906 36.3784 17.4025 41 17.4025C45.6216 17.4025 49.9387 16.6906 53.1561 15.3979C56.2204 14.1668 57.3076 12.7866 57.3076 11.9786C57.3076 10.6674 54.7821 8.7261 49.9555 7.5524C48.9632 7.31111 48.352 6.30126 48.5904 5.29684C48.8286 4.29242 49.8267 3.67368 50.8189 3.91515C57.2915 5.48893 61.0036 8.42814 61.0036 11.9788C61.0036 14.7461 58.7008 17.1952 54.5197 18.8751C50.8788 20.3379 46.0774 21.1435 41 21.1435ZM69.245 29.5891C79.787 32.9847 82 37.2816 82 40.2884C82 40.3374 81.9993 40.3868 81.9981 40.4363C81.9586 51.0047 77.6883 60.9301 69.9609 68.3988C62.2208 75.88 51.9355 80 41 80C30.0645 80 19.7794 75.88 12.0391 68.3988C4.31172 60.9301 0.0413949 51.0047 0.00184799 40.4363C0.000739195 40.3868 0 40.3374 0 40.2884C0 37.2816 2.21297 32.9847 12.7552 29.5889C20.3264 27.1504 30.3573 25.8075 41.0002 25.8075C48.1473 25.8075 55.0172 26.414 61.0529 27.5503L65.6531 20.4771C66.2143 19.6143 67.3602 19.3752 68.2127 19.9433C69.0652 20.5113 69.3014 21.6712 68.7401 22.534L64.9361 28.3831C66.4442 28.7489 67.8849 29.1511 69.245 29.5891ZM78.304 40.2884C78.304 37.9101 74.4035 35.1765 68.1242 33.154C66.4605 32.6181 64.6668 32.1383 62.7684 31.7164L55.1761 43.3901C60.8527 44.0887 66.0332 45.2031 70.2699 46.6688C75.2789 44.7518 78.304 42.3823 78.304 40.2884ZM18.349 48.6584C24.8661 50.1968 32.7249 51.0282 41 51.0282C42.6342 51.0282 44.2519 50.9955 45.8463 50.9315L48.705 46.5362C46.1903 46.371 43.6101 46.2852 40.9994 46.2852C32.7766 46.2852 24.8517 47.1304 18.349 48.6584ZM63.6511 48.6584C60.3795 47.8896 56.7472 47.2943 52.8984 46.892L50.4512 50.6551C55.2101 50.2709 59.6796 49.5959 63.6511 48.6584ZM40.9998 29.5485C30.727 29.5485 21.0942 30.829 13.8756 33.154C7.59652 35.1763 3.69597 37.9101 3.69597 40.2884C3.69597 42.3825 6.72131 44.752 11.7303 46.6688C19.3174 44.0438 29.9294 42.5441 40.9993 42.5441C44.4116 42.5441 47.7793 42.6878 51.0296 42.9616L58.8405 30.9517C53.4127 30.035 47.3282 29.5485 40.9998 29.5485ZM4.36975 47.105C7.68264 63.6907 22.847 76.2591 41 76.2591C59.153 76.2591 74.3174 63.6909 77.6302 47.105C75.7115 48.4478 73.0095 49.7752 69.245 50.9876C61.674 53.4261 51.6429 54.7691 41 54.7691C30.3571 54.7691 20.3262 53.4261 12.755 50.9876C8.99046 49.775 6.28852 48.4476 4.36975 47.105Z" fill="#FFB84D"/>
</svg>